<mxfile host="app.diagrams.net" agent="Mozilla/5.0 (Windows NT 10.0; Win64; x64) AppleWebKit/537.36 (KHTML, like Gecko) Chrome/134.0.0.0 Safari/537.36" version="26.1.0">
  <diagram name="Seite-1" id="zhunN8-46d6H2VTL_Fue">
    <mxGraphModel dx="990" dy="522" grid="1" gridSize="10" guides="1" tooltips="1" connect="1" arrows="1" fold="1" page="1" pageScale="1" pageWidth="850" pageHeight="1100" math="0" shadow="0">
      <root>
        <mxCell id="0" />
        <mxCell id="1" parent="0" />
        <mxCell id="CIvwghCkKZJLqQDSRGjT-2" value="Cloud Server" style="verticalAlign=top;align=left;spacingTop=8;spacingLeft=2;spacingRight=12;shape=cube;size=10;direction=south;fontStyle=4;html=1;whiteSpace=wrap;fillColor=#dae8fc;strokeColor=#6C8EBF;" parent="1" vertex="1">
          <mxGeometry x="270" y="300" width="420" height="200" as="geometry" />
        </mxCell>
        <mxCell id="CIvwghCkKZJLqQDSRGjT-3" value="Mongo DB" style="rounded=1;arcSize=10;whiteSpace=wrap;html=1;align=center;fillColor=#008a00;fontColor=#ffffff;strokeColor=#005700;" parent="1" vertex="1">
          <mxGeometry x="450" y="460" width="60" height="25" as="geometry" />
        </mxCell>
        <mxCell id="CIvwghCkKZJLqQDSRGjT-6" value="" style="edgeStyle=orthogonalEdgeStyle;rounded=0;orthogonalLoop=1;jettySize=auto;html=1;dashed=1;fillColor=#0050ef;strokeColor=#001DBC;entryX=0.5;entryY=0;entryDx=0;entryDy=0;" parent="1" source="CIvwghCkKZJLqQDSRGjT-4" target="CIvwghCkKZJLqQDSRGjT-3" edge="1">
          <mxGeometry relative="1" as="geometry" />
        </mxCell>
        <mxCell id="9UuokQjNE88UOdvOY16Y-3" value="&lt;span&gt;HTTP&lt;/span&gt;" style="edgeStyle=orthogonalEdgeStyle;rounded=0;orthogonalLoop=1;jettySize=auto;html=1;fillColor=#a20025;strokeColor=#6F0000;" edge="1" parent="1" source="CIvwghCkKZJLqQDSRGjT-4" target="CIvwghCkKZJLqQDSRGjT-18">
          <mxGeometry x="0.0068" relative="1" as="geometry">
            <mxPoint as="offset" />
          </mxGeometry>
        </mxCell>
        <mxCell id="CIvwghCkKZJLqQDSRGjT-4" value="Backend Server" style="shape=module;align=center;spacingLeft=20;align=center;verticalAlign=top;whiteSpace=wrap;html=1;strokeColor=#001DBC;fontFamily=Helvetica;fontSize=12;fontColor=#ffffff;fillColor=#0050ef;" parent="1" vertex="1">
          <mxGeometry x="320" y="390" width="120" height="50" as="geometry" />
        </mxCell>
        <mxCell id="CIvwghCkKZJLqQDSRGjT-7" style="edgeStyle=orthogonalEdgeStyle;rounded=0;orthogonalLoop=1;jettySize=auto;html=1;entryX=1;entryY=0.5;entryDx=0;entryDy=0;fillColor=#0050ef;strokeColor=#001DBC;dashed=1;" parent="1" source="CIvwghCkKZJLqQDSRGjT-5" target="CIvwghCkKZJLqQDSRGjT-3" edge="1">
          <mxGeometry relative="1" as="geometry">
            <Array as="points">
              <mxPoint x="610" y="473" />
              <mxPoint x="540" y="473" />
            </Array>
          </mxGeometry>
        </mxCell>
        <mxCell id="CIvwghCkKZJLqQDSRGjT-5" value="Authentication Server (Not part of this project)" style="shape=module;align=center;spacingLeft=20;align=center;verticalAlign=top;whiteSpace=wrap;html=1;fontFamily=Helvetica;fontSize=12;fillColor=#0050ef;fontColor=#ffffff;strokeColor=#001DBC;" parent="1" vertex="1">
          <mxGeometry x="550" y="390" width="120" height="50" as="geometry" />
        </mxCell>
        <mxCell id="CIvwghCkKZJLqQDSRGjT-9" value="Android APP" style="rounded=1;arcSize=10;whiteSpace=wrap;html=1;align=center;strokeColor=#A50040;verticalAlign=middle;fontFamily=Helvetica;fontSize=12;fontColor=#ffffff;fillColor=#d80073;" parent="1" vertex="1">
          <mxGeometry x="340" y="190" width="100" height="40" as="geometry" />
        </mxCell>
        <mxCell id="CIvwghCkKZJLqQDSRGjT-10" value="iOS APP" style="rounded=1;arcSize=10;whiteSpace=wrap;html=1;align=center;strokeColor=#A50040;verticalAlign=middle;fontFamily=Helvetica;fontSize=12;fontColor=#ffffff;fillColor=#d80073;" parent="1" vertex="1">
          <mxGeometry x="520" y="190" width="100" height="40" as="geometry" />
        </mxCell>
        <mxCell id="CIvwghCkKZJLqQDSRGjT-12" value="NGIX proxy" style="rounded=1;arcSize=10;whiteSpace=wrap;html=1;align=center;fillColor=#008a00;fontColor=#ffffff;strokeColor=#005700;" parent="1" vertex="1">
          <mxGeometry x="370" y="330" width="180" height="25" as="geometry" />
        </mxCell>
        <mxCell id="CIvwghCkKZJLqQDSRGjT-18" value="Open AI" style="rounded=1;arcSize=10;whiteSpace=wrap;html=1;align=center;strokeColor=#2D7600;verticalAlign=middle;fontFamily=Helvetica;fontSize=12;fontColor=#ffffff;fillColor=#60a917;" parent="1" vertex="1">
          <mxGeometry x="330" y="520" width="100" height="20" as="geometry" />
        </mxCell>
        <mxCell id="9UuokQjNE88UOdvOY16Y-2" value="Cloudflare" style="rounded=1;whiteSpace=wrap;html=1;fillColor=#60a917;fontColor=#ffffff;strokeColor=#2D7600;" vertex="1" parent="1">
          <mxGeometry x="270" y="260" width="420" height="30" as="geometry" />
        </mxCell>
        <mxCell id="9UuokQjNE88UOdvOY16Y-4" value="Protobuf" style="edgeStyle=orthogonalEdgeStyle;rounded=0;orthogonalLoop=1;jettySize=auto;html=1;entryX=0.579;entryY=-0.002;entryDx=0;entryDy=0;entryPerimeter=0;fillColor=#fad7ac;strokeColor=#FF8000;" edge="1" parent="1" source="CIvwghCkKZJLqQDSRGjT-9" target="CIvwghCkKZJLqQDSRGjT-4">
          <mxGeometry relative="1" as="geometry" />
        </mxCell>
        <mxCell id="9UuokQjNE88UOdvOY16Y-5" value="Protobuf" style="edgeStyle=orthogonalEdgeStyle;rounded=0;orthogonalLoop=1;jettySize=auto;html=1;entryX=0.45;entryY=0.643;entryDx=0;entryDy=0;entryPerimeter=0;strokeColor=#FF8000;" edge="1" parent="1" source="CIvwghCkKZJLqQDSRGjT-10" target="CIvwghCkKZJLqQDSRGjT-2">
          <mxGeometry relative="1" as="geometry">
            <Array as="points">
              <mxPoint x="570" y="320" />
              <mxPoint x="420" y="320" />
            </Array>
          </mxGeometry>
        </mxCell>
        <mxCell id="9UuokQjNE88UOdvOY16Y-6" value="HTTP" style="edgeStyle=orthogonalEdgeStyle;rounded=0;orthogonalLoop=1;jettySize=auto;html=1;strokeColor=#6600CC;" edge="1" parent="1" source="CIvwghCkKZJLqQDSRGjT-10" target="CIvwghCkKZJLqQDSRGjT-5">
          <mxGeometry x="0.3913" relative="1" as="geometry">
            <Array as="points">
              <mxPoint x="540" y="370" />
              <mxPoint x="610" y="370" />
            </Array>
            <mxPoint as="offset" />
          </mxGeometry>
        </mxCell>
        <mxCell id="9UuokQjNE88UOdvOY16Y-7" style="edgeStyle=orthogonalEdgeStyle;rounded=0;orthogonalLoop=1;jettySize=auto;html=1;entryX=0.004;entryY=0.379;entryDx=0;entryDy=0;entryPerimeter=0;exitX=0.69;exitY=1.01;exitDx=0;exitDy=0;exitPerimeter=0;strokeColor=#6600CC;" edge="1" parent="1" source="CIvwghCkKZJLqQDSRGjT-9" target="CIvwghCkKZJLqQDSRGjT-5">
          <mxGeometry relative="1" as="geometry">
            <Array as="points">
              <mxPoint x="409" y="250" />
              <mxPoint x="530" y="250" />
              <mxPoint x="530" y="409" />
            </Array>
          </mxGeometry>
        </mxCell>
        <mxCell id="9UuokQjNE88UOdvOY16Y-9" value="HTTP" style="edgeLabel;html=1;align=center;verticalAlign=middle;resizable=0;points=[];" vertex="1" connectable="0" parent="9UuokQjNE88UOdvOY16Y-7">
          <mxGeometry x="0.0195" y="-4" relative="1" as="geometry">
            <mxPoint x="4" y="117" as="offset" />
          </mxGeometry>
        </mxCell>
        <mxCell id="9UuokQjNE88UOdvOY16Y-12" value="" style="edgeStyle=orthogonalEdgeStyle;rounded=0;orthogonalLoop=1;jettySize=auto;html=1;strokeColor=#6F0000;" edge="1" parent="1" source="9UuokQjNE88UOdvOY16Y-10" target="9UuokQjNE88UOdvOY16Y-11">
          <mxGeometry relative="1" as="geometry">
            <Array as="points">
              <mxPoint x="650" y="520" />
              <mxPoint x="650" y="520" />
            </Array>
          </mxGeometry>
        </mxCell>
        <mxCell id="9UuokQjNE88UOdvOY16Y-10" value="Grafana" style="rounded=1;whiteSpace=wrap;html=1;fillColor=#008a00;fontColor=#ffffff;strokeColor=#005700;" vertex="1" parent="1">
          <mxGeometry x="620" y="470" width="60" height="26.25" as="geometry" />
        </mxCell>
        <mxCell id="9UuokQjNE88UOdvOY16Y-11" value="Grafana Cloud" style="rounded=1;arcSize=10;whiteSpace=wrap;html=1;align=center;strokeColor=#2D7600;verticalAlign=middle;fontFamily=Helvetica;fontSize=12;fontColor=#ffffff;fillColor=#60a917;" vertex="1" parent="1">
          <mxGeometry x="580" y="520" width="100" height="20" as="geometry" />
        </mxCell>
      </root>
    </mxGraphModel>
  </diagram>
</mxfile>
